<svg width="137" height="36" viewBox="0 0 137 36" fill="none" xmlns="http://www.w3.org/2000/svg">
<g clip-path="url(#clip0)">
<rect width="137" height="36" fill="white"/>
<path d="M59.0614 9.225V23.125H56.7814V17.045H50.2414V23.125H47.9614V9.225H50.2414V15.185H56.7814V9.225H59.0614ZM66.843 23.305C65.803 23.305 64.863 23.0717 64.023 22.605C63.183 22.125 62.523 21.4583 62.043 20.605C61.563 19.7383 61.323 18.7383 61.323 17.605C61.323 16.485 61.5697 15.4917 62.063 14.625C62.5563 13.7583 63.2297 13.0917 64.083 12.625C64.9363 12.1583 65.8897 11.925 66.943 11.925C67.9963 11.925 68.9497 12.1583 69.803 12.625C70.6563 13.0917 71.3297 13.7583 71.823 14.625C72.3163 15.4917 72.563 16.485 72.563 17.605C72.563 18.725 72.3097 19.7183 71.803 20.585C71.2963 21.4517 70.603 22.125 69.723 22.605C68.8563 23.0717 67.8963 23.305 66.843 23.305ZM66.843 21.325C67.4297 21.325 67.9763 21.185 68.483 20.905C69.003 20.625 69.423 20.205 69.743 19.645C70.063 19.085 70.223 18.405 70.223 17.605C70.223 16.805 70.0697 16.1317 69.763 15.585C69.4563 15.025 69.0497 14.605 68.543 14.325C68.0363 14.045 67.4897 13.905 66.903 13.905C66.3163 13.905 65.7697 14.045 65.263 14.325C64.7697 14.605 64.3763 15.025 64.083 15.585C63.7897 16.1317 63.643 16.805 63.643 17.605C63.643 18.7917 63.943 19.7117 64.543 20.365C65.1563 21.005 65.923 21.325 66.843 21.325ZM77.0969 8.325V23.125H74.8169V8.325H77.0969ZM81.2503 10.645C80.837 10.645 80.4903 10.505 80.2103 10.225C79.9303 9.945 79.7903 9.59833 79.7903 9.185C79.7903 8.77167 79.9303 8.425 80.2103 8.145C80.4903 7.865 80.837 7.725 81.2503 7.725C81.6503 7.725 81.9903 7.865 82.2703 8.145C82.5503 8.425 82.6903 8.77167 82.6903 9.185C82.6903 9.59833 82.5503 9.945 82.2703 10.225C81.9903 10.505 81.6503 10.645 81.2503 10.645ZM82.3703 12.105V23.125H80.0903V12.105H82.3703ZM84.6038 17.565C84.6038 16.4583 84.8304 15.4783 85.2838 14.625C85.7504 13.7717 86.3771 13.1117 87.1638 12.645C87.9638 12.165 88.8504 11.925 89.8238 11.925C90.5438 11.925 91.2504 12.085 91.9438 12.405C92.6504 12.7117 93.2104 13.125 93.6238 13.645V8.325H95.9238V23.125H93.6238V21.465C93.2504 21.9983 92.7304 22.4383 92.0638 22.785C91.4104 23.1317 90.6571 23.305 89.8038 23.305C88.8438 23.305 87.9638 23.065 87.1638 22.585C86.3771 22.0917 85.7504 21.4117 85.2838 20.545C84.8304 19.665 84.6038 18.6717 84.6038 17.565ZM93.6238 17.605C93.6238 16.845 93.4638 16.185 93.1438 15.625C92.8371 15.065 92.4304 14.6383 91.9238 14.345C91.4171 14.0517 90.8704 13.905 90.2838 13.905C89.6971 13.905 89.1504 14.0517 88.6438 14.345C88.1371 14.625 87.7238 15.045 87.4038 15.605C87.0971 16.1517 86.9438 16.805 86.9438 17.565C86.9438 18.325 87.0971 18.9917 87.4038 19.565C87.7238 20.1383 88.1371 20.5783 88.6438 20.885C89.1638 21.1783 89.7104 21.325 90.2838 21.325C90.8704 21.325 91.4171 21.1783 91.9238 20.885C92.4304 20.5917 92.8371 20.165 93.1438 19.605C93.4638 19.0317 93.6238 18.365 93.6238 17.605ZM98.1585 17.565C98.1585 16.4583 98.3851 15.4783 98.8385 14.625C99.3051 13.7717 99.9318 13.1117 100.718 12.645C101.518 12.165 102.398 11.925 103.358 11.925C104.225 11.925 104.978 12.0983 105.618 12.445C106.272 12.7783 106.792 13.1983 107.178 13.705V12.105H109.478V23.125H107.178V21.485C106.792 22.005 106.265 22.4383 105.598 22.785C104.932 23.1317 104.172 23.305 103.318 23.305C102.372 23.305 101.505 23.065 100.718 22.585C99.9318 22.0917 99.3051 21.4117 98.8385 20.545C98.3851 19.665 98.1585 18.6717 98.1585 17.565ZM107.178 17.605C107.178 16.845 107.018 16.185 106.698 15.625C106.392 15.065 105.985 14.6383 105.478 14.345C104.972 14.0517 104.425 13.905 103.838 13.905C103.252 13.905 102.705 14.0517 102.198 14.345C101.692 14.625 101.278 15.045 100.958 15.605C100.652 16.1517 100.498 16.805 100.498 17.565C100.498 18.325 100.652 18.9917 100.958 19.565C101.278 20.1383 101.692 20.5783 102.198 20.885C102.718 21.1783 103.265 21.325 103.838 21.325C104.425 21.325 104.972 21.1783 105.478 20.885C105.985 20.5917 106.392 20.165 106.698 19.605C107.018 19.0317 107.178 18.365 107.178 17.605ZM122.393 12.105L115.633 28.305H113.273L115.513 22.945L111.173 12.105H113.713L116.813 20.505L120.033 12.105H122.393ZM125.034 23.265C124.62 23.265 124.274 23.125 123.994 22.845C123.714 22.565 123.574 22.2183 123.574 21.805C123.574 21.3917 123.714 21.045 123.994 20.765C124.274 20.485 124.62 20.345 125.034 20.345C125.434 20.345 125.774 20.485 126.054 20.765C126.334 21.045 126.474 21.3917 126.474 21.805C126.474 22.2183 126.334 22.565 126.054 22.845C125.774 23.125 125.434 23.265 125.034 23.265Z" fill="black"/>
<path d="M17.0532 1.80995C18.8176 0.921985 19.6998 0.478 20.6496 0.478C21.5994 0.478 22.4816 0.921985 24.246 1.80995L34.129 6.7838C36.2719 7.86224 37.3433 8.40146 37.938 9.36644C38.5326 10.3314 38.5326 11.5309 38.5326 13.9298V22.0702C38.5326 24.4691 38.5326 25.6686 37.938 26.6336C37.3433 27.5985 36.2719 28.1378 34.129 29.2162L24.246 34.19C22.4816 35.078 21.5994 35.522 20.6496 35.522C19.6998 35.522 18.8176 35.078 17.0532 34.19L7.17013 29.2162C5.02726 28.1378 3.95582 27.5985 3.36117 26.6336C2.76652 25.6686 2.76652 24.4691 2.76652 22.0702V13.9298C2.76652 11.5309 2.76652 10.3314 3.36117 9.36644C3.95582 8.40146 5.02726 7.86224 7.17013 6.7838L17.0532 1.80995Z" fill="black"/>
<circle cx="21" cy="18" r="7" fill="#F6830F"/>
</g>
<defs>
<clipPath id="clip0">
<rect width="137" height="36" fill="white"/>
</clipPath>
</defs>
</svg>
